<svg 
 xmlns="http://www.w3.org/2000/svg"
 xmlns:xlink="http://www.w3.org/1999/xlink"
 width="1016px" height="1017px">
<path fill-rule="evenodd"  fill="rgb(204, 204, 204)"
 d="M587.499,23.036 C367.935,23.036 189.944,201.027 189.944,420.590 C189.944,640.153 367.935,818.145 587.499,818.145 C807.063,818.145 985.054,640.153 985.054,420.590 C985.054,364.587 973.451,311.301 952.556,262.972 C992.962,335.848 1015.977,419.703 1015.977,508.935 C1015.977,789.488 788.540,1016.922 507.991,1016.922 C227.437,1016.922 0.001,789.488 0.001,508.935 C0.001,228.382 227.437,0.949 507.991,0.949 C578.274,0.949 645.223,15.225 706.098,41.032 C668.642,29.340 628.807,23.036 587.499,23.036 Z"/>
</svg>