<svg 
 xmlns="http://www.w3.org/2000/svg"
 xmlns:xlink="http://www.w3.org/1999/xlink"
 width="168px" height="168px">
<path fill-rule="evenodd"  opacity="0.2" fill="rgb(204, 204, 204)"
 d="M84.000,168.000 C37.608,168.000 -0.000,130.391 -0.000,83.999 C-0.000,72.378 2.361,61.310 6.627,51.245 C4.695,57.437 3.652,64.022 3.652,70.852 C3.652,107.158 33.085,136.591 69.391,136.591 C105.698,136.591 135.130,107.158 135.130,70.852 C135.130,34.544 105.698,5.112 69.391,5.112 C60.156,5.112 51.371,7.024 43.397,10.462 C55.433,3.802 69.270,-0.001 84.000,-0.001 C130.392,-0.001 168.000,37.607 168.000,83.999 C168.000,130.391 130.392,168.000 84.000,168.000 Z"/>
</svg>