<?xml version="1.0" encoding="UTF-8"?>
<svg xmlns="http://www.w3.org/2000/svg" id="Icons" viewBox="0 0 60 60" width="512" height="512"><path d="M53.383,31.934l-.921.77A19.656,19.656,0,0,0,39,27.049v-9.7c.04.013.077.033.118.045A24.321,24.321,0,0,0,45.7,18.41a11.443,11.443,0,0,0,6.87-1.962c4.108-3.024,4.829-9.171,4.9-12.565a2.9,2.9,0,0,0-2.118-2.874C52.085.062,46-1.071,41.9,1.953a12.118,12.118,0,0,0-4.206,7.03A10.8,10.8,0,0,0,33.7,3.69c-3.915-2.542-9.32-1.316-12.192-.358a2.635,2.635,0,0,0-1.8,2.772C20,9.117,21.079,14.553,25,17.1a10.385,10.385,0,0,0,5.716,1.51A20.921,20.921,0,0,0,37,17.513v9.516c-6.894.289-12.873,3.545-15.56,8.5a16.911,16.911,0,0,0-8.172,4.767c-.331.331-3.444,3.7-7.8,8.415C3.49,50.844,1.68,52.8.8,53.752A2.984,2.984,0,0,0,0,55.789V57a3,3,0,0,0,3,3H15.975a3.01,3.01,0,0,0,2.4-1.2l4.2-5.6a3.014,3.014,0,0,1,2.4-1.2L43,52a4.878,4.878,0,0,0,3.344-1.459l12.48-12.706a4.019,4.019,0,0,0-5.445-5.9Zm-10.3-28.37A9.521,9.521,0,0,1,48.762,2a22.638,22.638,0,0,1,6.026.927.926.926,0,0,1,.675.916c-.047,2.436-.537,8.384-4.08,10.992s-9.369,1.314-11.709.634c-.02-.006-.036-.02-.056-.027,1.16-2.562,4.206-7.123,11.561-8.461a1,1,0,1,0-.358-1.966,17.26,17.26,0,0,0-11.665,7.189C39.476,9.382,40.413,5.528,43.081,3.564Zm-17,11.854c-3.333-2.164-4.178-7.371-4.387-9.51a.632.632,0,0,1,.441-.679,19.516,19.516,0,0,1,5.854-1.041,8.427,8.427,0,0,1,4.617,1.18c2.28,1.48,3.395,4.383,3.939,6.754-3.361-2.966-9.03-4.044-9.369-4.105a1,1,0,1,0-.358,1.966c2.474.454,8.4,2.245,9.852,5.512a.628.628,0,0,1-.118.062C34.518,16.235,29.42,17.584,26.084,15.418ZM38,29a17.955,17.955,0,0,1,12.929,4.988L45.252,38.74A4.213,4.213,0,0,0,41.81,37H31.622a.9.9,0,0,1-.576-.182A7.985,7.985,0,0,0,25.975,35q-.966,0-1.877.078C26.911,31.38,32.219,29,38,29Zm19.4,7.431L44.922,49.136A2.868,2.868,0,0,1,42.975,50l-18,0a5.021,5.021,0,0,0-4,2l-4.2,5.6a1,1,0,0,1-.8.4H3a1,1,0,0,1-1-1V55.789a.989.989,0,0,1,.263-.676c.883-.95,2.694-2.91,4.67-5.048,3.305-3.577,7.42-8.029,7.749-8.358A14.894,14.894,0,0,1,25.975,37a5.9,5.9,0,0,1,3.8,1.361A2.906,2.906,0,0,0,31.622,39H41.81a2.167,2.167,0,0,1,2.1,1.5.937.937,0,0,0,.035.148,1.831,1.831,0,0,1,.03.247,2,2,0,0,1-2,2.1h-11a1,1,0,1,0,0,2h11a3.994,3.994,0,0,0,3.994-4.206l0-.044,8.7-7.282a2.018,2.018,0,0,1,2.84.252A2.04,2.04,0,0,1,57.4,36.431Z"/></svg>
