<svg height="512pt" viewBox="-13 0 512 512" width="512pt" xmlns="http://www.w3.org/2000/svg"><path d="m183.34375 163.351562c-28.628906 18.503907-46.171875 50.035157-46.808594 84.113282 0 4.714844 3.820313 8.535156 8.53125 8.535156 4.714844 0 8.535156-3.820312 8.535156-8.535156.585938-28.105469 15.007813-54.113282 38.539063-69.492188 3.960937-2.464844 5.207031-7.652344 2.804687-11.648437-2.40625-3.992188-7.574218-5.320313-11.601562-2.972657zm0 0"/><path d="m443.734375 213.332031c-20.265625.027344-37.726563 14.285157-41.804687 34.132813h-104.125c-1.972657-9.34375-7.035157-17.75-14.371094-23.867188l28.832031-52.929687h29.929687c4.382813 21.460937 24.300782 36.117187 46.09375 33.914062 21.792969-2.199219 38.378907-20.546875 38.378907-42.449219 0-21.902343-16.585938-40.25-38.378907-42.449218-21.792968-2.203125-41.710937 12.457031-46.09375 33.917968h-26.460937v-56.203124l29.132813-29.132813h39.996093c4.378907 21.460937 24.300781 36.121094 46.09375 33.917969 21.792969-2.199219 38.378907-20.546875 38.378907-42.449219 0-21.90625-16.585938-40.25-38.378907-42.453125-21.792969-2.199219-41.714843 12.457031-46.09375 33.917969h-39.996093c-4.523438.011719-8.859376 1.808593-12.066407 5l-7.316406 7.320312c-5.996094-2.21875-12.097656-4.136719-18.285156-5.742187v-40.710938c-.011719-9.421875-7.644531-17.0546872-17.066407-17.066406h-68.265624c-9.421876.0117188-17.054688 7.644531-17.066407 17.066406v40.703125c-18.550781 4.730469-36.335937 12.078125-52.816406 21.8125l-28.625-28.628906c-3.191406-3.289063-7.585937-5.140625-12.171875-5.128906h-.015625c-4.542969-.019531-8.902344 1.804687-12.074219 5.058593l-48.140625 48.132813c-3.269531 3.1875-5.117187 7.554687-5.132812 12.117187-.011719 4.566407 1.808593 8.945313 5.058593 12.152344l28.691407 28.695313c-9.734375 16.484375-17.078125 34.269531-21.816407 52.820312h-40.691406c-9.421875.011719-17.0546872 7.644531-17.066406 17.066407v68.265624c.0117188 9.421876 7.644531 17.054688 17.066406 17.066407h40.691406c4.738282 18.550781 12.082032 36.335937 21.816407 52.820312l-28.617188 28.617188c-3.269531 3.1875-5.117187 7.554687-5.132812 12.117187-.011719 4.566406 1.808593 8.945313 5.058593 12.148438l48.140626 48.136718c3.183593 3.292969 7.570312 5.148438 12.152343 5.136719h.015625c4.550782.019531 8.910156-1.804687 12.09375-5.058593l28.699219-28.695313c16.480469 9.734375 34.265625 17.082031 52.816406 21.8125v40.699219c.011719 9.421875 7.644531 17.054687 17.066407 17.066406h68.265624c9.421876-.011719 17.054688-7.644531 17.066407-17.066406v-40.710938c6.1875-1.605468 12.289062-3.523437 18.285156-5.742187l7.316406 7.320312c3.207031 3.191407 7.542969 4.988281 12.066407 5h39.996093c4.378907 21.460938 24.300781 36.117188 46.09375 33.917969 21.792969-2.203125 38.378907-20.546875 38.378907-42.453125 0-21.902344-16.585938-40.25-38.378907-42.449219-21.792969-2.203125-41.714843 12.457032-46.09375 33.917969h-39.996093l-29.132813-29.132813v-56.203124h26.460937c4.382813 21.460937 24.300782 36.121093 46.09375 33.917968 21.792969-2.199218 38.378907-20.546875 38.378907-42.449218 0-21.902344-16.585938-40.25-38.378907-42.449219-21.792968-2.203125-41.710937 12.453125-46.09375 33.914062h-29.929687l-28.832031-52.929687c7.335937-6.117188 12.398437-14.523438 14.371094-23.867188h104.125c4.492187 21.996094 25.261718 36.753906 47.515624 33.746094 22.25-3.003906 38.367188-22.742188 36.859376-45.144531-1.507813-22.402344-20.117188-39.804688-42.570313-39.804688zm-17.066406-179.199219c14.136719 0 25.597656 11.460938 25.597656 25.601563 0 14.136719-11.460937 25.597656-25.597656 25.597656-14.140625 0-25.601563-11.460937-25.601563-25.597656.015625-14.132813 11.46875-25.585937 25.601563-25.601563zm0 392.535157c14.136719 0 25.597656 11.460937 25.597656 25.597656 0 14.140625-11.460937 25.601563-25.597656 25.601563-14.140625 0-25.601563-11.460938-25.601563-25.601563.015625-14.132813 11.46875-25.582031 25.601563-25.597656zm-170.667969-145.066407c-14.136719 0-25.601562-11.464843-25.601562-25.601562s11.464843-25.601562 25.601562-25.601562 25.601562 11.464843 25.601562 25.601562c-.015624 14.132812-11.46875 25.585938-25.601562 25.601562zm128-145.066406c14.136719 0 25.601562 11.460938 25.601562 25.597656 0 14.140626-11.464843 25.601563-25.601562 25.601563s-25.601562-11.460937-25.601562-25.601563c.015624-14.132812 11.46875-25.582031 25.601562-25.597656zm-87.183594 302.625c-3.90625.863282-6.683594 4.328125-6.683594 8.328125v47.445313h-68.265624v-47.445313c0-4.011719-2.792969-7.480469-6.707032-8.335937-21.261718-4.660156-41.53125-13.027344-59.886718-24.722656-3.375-2.132813-7.777344-1.648438-10.605469 1.171874l-33.5 33.449219-48.214844-48.265625 33.449219-33.449218c2.828125-2.828126 3.3125-7.238282 1.167968-10.609376-11.691406-18.355468-20.0625-38.628906-24.726562-59.882812-.855469-3.917969-4.324219-6.707031-8.332031-6.710938h-47.445313v-68.265624h47.445313c4.007812 0 7.476562-2.792969 8.332031-6.707032 4.664062-21.257812 13.035156-41.53125 24.726562-59.886718 2.144532-3.371094 1.660157-7.78125-1.167968-10.605469l-33.449219-33.503907 48.265625-48.214843 33.449219 33.449219c2.828125 2.828124 7.238281 3.316406 10.609375 1.171874 18.355468-11.695312 38.625-20.0625 59.882812-24.71875 3.917969-.859374 6.707032-4.332031 6.707032-8.339843v-47.445313h68.265624v47.445313c0 4 2.777344 7.464843 6.683594 8.328125 5.277344 1.175781 10.351563 2.5625 15.257813 4.085937l-8.40625 8.40625c-3.214844 3.195313-5.011719 7.539063-5 12.066407v11.058593c-62.75-18.164062-130.121094 5.34375-167.945313 58.605469-37.828125 53.257812-37.828125 124.617188 0 177.875 37.824219 53.261719 105.195313 76.769531 167.945313 58.605469v11.058593c-.011719 4.527344 1.789062 8.871094 5 12.066407l8.40625 8.402343c-4.90625 1.53125-9.980469 2.914063-15.257813 4.089844zm87.183594-114.894531c14.136719 0 25.601562 11.460937 25.601562 25.601563 0 14.136718-11.464843 25.597656-25.601562 25.597656s-25.601562-11.460938-25.601562-25.597656c.015624-14.132813 11.46875-25.585938 25.601562-25.601563zm-85.332031 27.773437v33.554688c-56.335938 18.679688-118.289063-1.171875-153.269531-49.121094-34.984376-47.945312-34.984376-113 0-160.945312 34.980468-47.949219 96.933593-67.800782 153.269531-49.121094v33.554688l-30.203125 55.445312c-4.027344-1.3125-8.230469-2.011719-12.464844-2.074219-23.5625 0-42.667969 19.105469-42.667969 42.667969s19.105469 42.667969 42.667969 42.667969c4.234375-.0625 8.4375-.761719 12.464844-2.074219zm145.066406-70.4375c-14.140625 0-25.601563-11.464843-25.601563-25.601562s11.460938-25.601562 25.601563-25.601562c14.136719 0 25.597656 11.464843 25.597656 25.601562-.015625 14.132812-11.464843 25.585938-25.597656 25.601562zm0 0"/></svg>