<?xml version="1.0" encoding="UTF-8"?>
<svg xmlns="http://www.w3.org/2000/svg" id="Icons" viewBox="0 0 60 60" width="512" height="512"><path d="M42.492,35.617a20,20,0,1,0-24.983,0A9.327,9.327,0,0,1,20.956,42.2,2.974,2.974,0,0,0,19.78,47a2.954,2.954,0,0,0,0,4A2.987,2.987,0,0,0,22,56h.388c1.291,2.412,4.238,4,7.612,4s6.321-1.588,7.612-4H38a2.987,2.987,0,0,0,2.22-5,2.954,2.954,0,0,0,0-4,2.974,2.974,0,0,0-1.176-4.8A9.325,9.325,0,0,1,42.492,35.617ZM38,44a1,1,0,0,1,0,2H22a1,1,0,0,1,0-2Zm1,5a1,1,0,0,1-1,1H22a1,1,0,0,1,0-2H38A1,1,0,0,1,39,49Zm-9,9a7.211,7.211,0,0,1-5.188-2H35.188A7.211,7.211,0,0,1,30,58Zm8-4H22a1,1,0,0,1,0-2H38a1,1,0,0,1,0,2Zm-.945-12H33.094a6.918,6.918,0,0,1,1.615-3.3,1,1,0,0,0-1.416-1.412A8.819,8.819,0,0,0,31.078,42H28.922a8.819,8.819,0,0,0-2.215-4.707A1,1,0,0,0,25.29,38.7,6.92,6.92,0,0,1,26.906,42H22.945a11.317,11.317,0,0,0-4.187-7.945,18,18,0,1,1,22.485,0A11.315,11.315,0,0,0,37.055,42Z"/><path d="M41.436,26.556a13.257,13.257,0,0,0,1.293-3.108l1.578-.258a1.936,1.936,0,0,0,1.613-1.682,14.19,14.19,0,0,0,0-3.028,1.928,1.928,0,0,0-1.61-1.67l-1.579-.258a13.257,13.257,0,0,0-1.293-3.108l.934-1.306a1.932,1.932,0,0,0-.045-2.331A13.3,13.3,0,0,0,41.31,8.688a15.042,15.042,0,0,0-1.137-1.03,1.92,1.92,0,0,0-2.308-.031l-1.309.937a13.257,13.257,0,0,0-3.108-1.293L33.19,5.693A1.933,1.933,0,0,0,31.508,4.08a14.061,14.061,0,0,0-3.028,0,1.928,1.928,0,0,0-1.67,1.61l-.258,1.579a13.257,13.257,0,0,0-3.108,1.293L22.138,7.63a1.924,1.924,0,0,0-2.331.045,14.5,14.5,0,0,0-1.108,1,13.526,13.526,0,0,0-1.032,1.135,1.932,1.932,0,0,0-.04,2.32l.937,1.309a13.257,13.257,0,0,0-1.293,3.108l-1.578.258a1.933,1.933,0,0,0-1.613,1.682,14.2,14.2,0,0,0,0,3.029,1.931,1.931,0,0,0,1.61,1.669l1.579.258a13.257,13.257,0,0,0,1.293,3.108l-.927,1.3a1.939,1.939,0,0,0,.038,2.341,14.782,14.782,0,0,0,1.015,1.119c.359.357.726.685,1.137,1.03a1.919,1.919,0,0,0,2.308.031l1.309-.937a13.257,13.257,0,0,0,3.108,1.293l.258,1.578a1.933,1.933,0,0,0,1.682,1.613,14.19,14.19,0,0,0,3.028,0,1.928,1.928,0,0,0,1.67-1.61l.258-1.579a13.257,13.257,0,0,0,3.108-1.293l1.306.934a1.927,1.927,0,0,0,2.344-.055c.378-.318.745-.646,1.106-1a15.042,15.042,0,0,0,1.03-1.137,1.929,1.929,0,0,0,.031-2.308Zm-.5-4.2a11.233,11.233,0,0,1-1.542,3.7,1,1,0,0,0,.027,1.125L40.722,29c-.24.29-.511.586-.825.9-.293.292-.594.563-.9.825l-1.812-1.3a1,1,0,0,0-1.125-.027,11.233,11.233,0,0,1-3.7,1.542,1,1,0,0,0-.773.816l-.357,2.183a12.065,12.065,0,0,1-2.448,0l-.357-2.183a1,1,0,0,0-.773-.816,11.233,11.233,0,0,1-3.7-1.542,1,1,0,0,0-1.125.027l-1.812,1.3c-.309-.262-.61-.533-.9-.824-.315-.316-.586-.612-.826-.9l1.3-1.813a1,1,0,0,0,.027-1.125,11.233,11.233,0,0,1-1.542-3.7,1,1,0,0,0-.816-.773l-2.183-.357C16.021,20.793,16,20.393,16,20s.021-.793.062-1.224l2.183-.357a1,1,0,0,0,.816-.773,11.233,11.233,0,0,1,1.542-3.7,1,1,0,0,0-.027-1.125l-1.3-1.813a11.163,11.163,0,0,1,.825-.9c.316-.315.612-.586.9-.826l1.813,1.3a1,1,0,0,0,1.125.027,11.233,11.233,0,0,1,3.7-1.542,1,1,0,0,0,.773-.816l.357-2.183a12.065,12.065,0,0,1,2.448,0l.357,2.183a1,1,0,0,0,.773.816,11.233,11.233,0,0,1,3.7,1.542,1.006,1.006,0,0,0,1.125-.027l1.813-1.3c.29.24.586.511.911.835a11.244,11.244,0,0,1,.816.892l-1.3,1.813a1,1,0,0,0-.027,1.125,11.233,11.233,0,0,1,1.542,3.7,1,1,0,0,0,.816.773l2.183.357c.041.431.062.831.062,1.224s-.021.793-.062,1.224l-2.183.357A1,1,0,0,0,40.939,22.354Z"/><path d="M30,12a8,8,0,1,0,8,8A8.009,8.009,0,0,0,30,12Zm0,14a6,6,0,1,1,6-6A6.006,6.006,0,0,1,30,26Z"/></svg>
