<svg id="Capa_1" enable-background="new 0 0 511.941 511.941" height="512" viewBox="0 0 511.941 511.941" width="512" xmlns="http://www.w3.org/2000/svg"><g><g id="Page-1_88_"><g id="_x30_89---House-Settings"><path id="Shape_225_" d="m16.082 244.77c4.482 11.899 15.889 19.757 28.604 19.703h6.485v217.6c.164 16.63 13.757 29.99 30.387 29.867h348.826c16.63.123 30.223-13.237 30.387-29.867v-217.6h6.485c12.715.053 24.122-7.805 28.604-19.703 4.985-12.236 1.964-26.276-7.612-35.379l-36.011-34.244v-120.423c-.019-16.11-13.074-29.165-29.184-29.184h-35.499c-16.11.019-29.165 13.074-29.184 29.184v31.146l-81.39-77.397c-11.718-11.298-30.275-11.298-41.993 0l-211.285 200.918c-9.583 9.098-12.608 23.142-7.62 35.379zm359.355-190.046c.009-6.688 5.429-12.108 12.117-12.117h35.499c6.688.009 12.108 5.429 12.117 12.117v104.183l-59.733-56.806zm-339.976 167.031 211.319-200.985c5.098-5.046 13.309-5.046 18.406 0l211.302 200.96c4.529 4.291 5.933 10.936 3.524 16.691-1.968 5.359-7.049 8.938-12.757 8.986h-15.019c-4.713 0-8.533 3.821-8.533 8.533v226.133c-.154 7.208-6.112 12.933-13.321 12.8h-348.824c-7.209.133-13.167-5.592-13.321-12.8v-226.133c0-4.713-3.821-8.533-8.533-8.533h-15.019c-5.702-.044-10.781-3.612-12.757-8.96-2.411-5.757-1.004-12.406 3.533-16.692z"/><path id="Shape_224_" d="m99.12 339.652 13.542 7.023 14.02 33.852-4.608 14.507c-2.91 9.107-.478 19.077 6.298 25.822l13.841 13.841c6.749 6.769 16.714 9.199 25.822 6.298l14.507-4.608 33.852 14.02 7.023 13.542c4.383 8.534 13.182 13.888 22.775 13.858h19.558c9.569.022 18.345-5.312 22.733-13.815l7.023-13.542 33.852-14.02 14.507 4.608c9.107 2.91 19.077.478 25.822-6.298l13.841-13.841c6.776-6.745 9.207-16.715 6.298-25.822l-4.608-14.507 14.02-33.852 13.542-7.023c8.534-4.383 13.888-13.182 13.858-22.775v-19.558c.022-9.569-5.312-18.345-13.815-22.733l-13.542-7.023-14.02-33.852 4.608-14.507c2.91-9.107.478-19.077-6.298-25.822l-13.841-13.841c-6.744-6.778-16.715-9.209-25.822-6.298l-14.507 4.608-33.852-14.02-7.023-13.542c-4.383-8.534-13.182-13.888-22.775-13.858h-19.558c-9.569-.022-18.345 5.312-22.733 13.815l-7.023 13.542-30.985 12.8c-1.851.776-3.918.863-5.828.247l-11.546-3.635c-9.108-2.896-19.07-.466-25.822 6.298l-13.841 13.841c-6.776 6.745-9.207 16.715-6.298 25.822l4.608 14.507-14.02 33.852-13.542 7.023c-8.534 4.383-13.888 13.182-13.858 22.775v19.558c-.023 9.569 5.311 18.345 13.815 22.733zm3.251-42.291c-.002-3.187 1.772-6.109 4.599-7.578l16.307-8.457c1.787-.925 3.189-2.451 3.959-4.309l16.401-39.603c.771-1.855.859-3.923.247-5.837l-5.547-17.519c-.962-3.037-.153-6.357 2.099-8.61l13.841-13.841c2.253-2.252 5.573-3.062 8.61-2.099l11.571 3.669c5.751 1.824 11.962 1.558 17.536-.751l33.852-14.02c1.858-.771 3.385-2.173 4.309-3.959l8.457-16.307c1.469-2.828 4.391-4.601 7.578-4.599h19.558c3.186-.002 6.109 1.772 7.578 4.599l8.457 16.307c.925 1.786 2.451 3.189 4.309 3.959l39.603 16.401c1.854.775 3.924.863 5.837.247l17.519-5.547c3.037-.962 6.357-.153 8.61 2.099l13.841 13.841c2.252 2.253 3.061 5.573 2.099 8.61l-5.547 17.519c-.611 1.914-.524 3.982.247 5.837l16.401 39.603c.771 1.858 2.173 3.385 3.959 4.309l16.307 8.457c2.828 1.469 4.601 4.391 4.599 7.578v19.558c.002 3.187-1.772 6.109-4.599 7.578l-16.307 8.457c-1.787.925-3.189 2.451-3.959 4.309l-16.401 39.603c-.771 1.855-.859 3.923-.247 5.837l5.547 17.519c.962 3.037.153 6.357-2.099 8.61l-13.841 13.841c-2.253 2.252-5.573 3.061-8.61 2.099l-17.519-5.547c-1.913-.616-3.983-.528-5.837.247l-39.603 16.401c-1.858.771-3.384 2.173-4.309 3.959l-8.457 16.307c-1.469 2.828-4.391 4.601-7.578 4.599h-19.558c-3.187.002-6.109-1.772-7.578-4.599l-8.457-16.307c-.925-1.787-2.451-3.189-4.309-3.959l-39.603-16.401c-1.856-.767-3.923-.854-5.837-.247l-17.519 5.547c-3.037.962-6.357.153-8.61-2.099l-13.841-13.841c-2.252-2.253-3.062-5.573-2.099-8.61l5.547-17.519c.611-1.914.524-3.982-.247-5.837l-16.401-39.603c-.771-1.858-2.173-3.385-3.959-4.309l-16.307-8.457c-2.828-1.469-4.601-4.391-4.599-7.578z"/><path id="Shape_223_" d="m255.971 401.007c51.841 0 93.867-42.026 93.867-93.867s-42.026-93.867-93.867-93.867-93.867 42.026-93.867 93.867c.061 51.816 42.051 93.805 93.867 93.867zm0-170.667c42.415 0 76.8 34.385 76.8 76.8s-34.385 76.8-76.8 76.8-76.8-34.385-76.8-76.8c.047-42.396 34.404-76.753 76.8-76.8z"/></g></g></g></svg>