<svg enable-background="new 0 0 24 24" height="512" viewBox="0 0 24 24" width="512" xmlns="http://www.w3.org/2000/svg"><path d="m3.836 15.841c.664.594 1.417 1.065 2.224 1.419l4.244-2.665c.878-.554 2.054-.423 2.789.316l1.427 1.427c2.139-1.577 3.48-4.1 3.48-6.838 0-4.687-3.813-8.5-8.5-8.5s-8.5 3.813-8.5 8.5c0 2.419 1.033 4.73 2.836 6.341zm6.044-5.591h-.76c-1.169 0-2.12-.951-2.12-2.12 0-1.051.758-1.916 1.75-2.092v-.788c0-.414.336-.75.75-.75s.75.336.75.75v.75h1c.414 0 .75.336.75.75s-.336.75-.75.75h-2.13c-.342 0-.62.278-.62.62 0 .352.278.63.62.63h.76c1.169 0 2.12.951 2.12 2.12 0 1.051-.758 1.916-1.75 2.092v.787c0 .414-.336.75-.75.75s-.75-.336-.75-.75v-.749h-1c-.414 0-.75-.336-.75-.75s.336-.75.75-.75h2.13c.342 0 .62-.278.62-.62 0-.352-.278-.63-.62-.63z"/><path d="m23 12h-4c-.404 0-.77.244-.924.617-.155.374-.069.804.217 1.09l1.293 1.293-4.086 4.086-3.293-3.293c-.327-.329-.841-.386-1.233-.143l-10.5 6.5c-.47.291-.614.907-.324 1.376.189.306.516.474.851.474.18 0 .361-.048.525-.15l9.826-6.083 3.44 3.44c.391.391 1.023.391 1.414 0l4.794-4.793 1.293 1.293c.191.191.447.293.707.293.129 0 .259-.025.383-.076.374-.155.617-.52.617-.924v-4c0-.552-.447-1-1-1z"/></svg>