<svg id="Capa_1" enable-background="new 0 0 512.019 512.019" height="512" viewBox="0 0 512.019 512.019" width="512" xmlns="http://www.w3.org/2000/svg"><g><g id="Page-1_72_"><g id="_x30_73---Computer-for-Sale" transform="translate(-1)"><path id="Shape_403_" d="m487.409.009h-460.8c-14.544.465-25.983 12.589-25.6 27.136v372.395c-.383 14.547 11.055 26.672 25.6 27.136h148.326l-17.067 34.133h-28.86c-14.138 0-25.6 11.462-25.6 25.6.079 14.106 11.494 25.521 25.6 25.6h324.267c14.138 0 25.6-11.461 25.6-25.6v-59.733h8.533c14.545-.464 25.983-12.589 25.6-27.136v-372.395c.384-14.547-11.054-26.671-25.599-27.136zm-460.8 17.067h460.8c5.086.521 8.853 4.966 8.533 10.069v331.264h-17.067v-27.307c-.002-12.184-5.213-23.786-14.319-31.881l-54.007-48.017c-9.699-8.621-24.315-8.621-34.014 0l-53.999 47.983c-9.118 8.101-14.333 19.718-14.327 31.915v27.307h-290.133v-331.264c-.32-5.103 3.447-9.548 8.533-10.069zm-8.533 382.464v-24.064h290.133v34.133h-281.6c-5.086-.521-8.853-4.966-8.533-10.069zm175.94 27.136h114.193v34.133h-131.259zm-71.082 65.656c-1.592-1.556-2.48-3.696-2.458-5.922 0-4.713 3.821-8.533 8.533-8.533h179.2v8.533c.028 2.914.559 5.801 1.57 8.533h-180.77c-2.298.003-4.496-.942-6.075-2.611zm338.875-5.923c0 4.713-3.82 8.533-8.533 8.533h-119.467c-4.713 0-8.533-3.82-8.533-8.533v-155.306c.001-7.312 3.128-14.274 8.593-19.132l53.999-48c3.234-2.875 8.107-2.875 11.341 0l54.007 48.009c5.463 4.856 8.59 11.814 8.593 19.123zm25.6-76.8h-8.533v-34.133h17.067v24.064c.32 5.103-3.447 9.548-8.534 10.069z"/><path id="Shape_402_" d="m43.676 59.743c2.263 0 4.433-.9 6.033-2.5l8.533-8.533c3.234-3.348 3.188-8.671-.104-11.962-3.292-3.292-8.614-3.338-11.962-.104l-8.533 8.533c-2.44 2.44-3.169 6.11-1.849 9.298s4.431 5.267 7.882 5.268z"/><path id="Shape_401_" d="m43.676 110.943c2.263 0 4.433-.9 6.033-2.5l59.733-59.733c2.218-2.143 3.108-5.315 2.327-8.299s-3.111-5.313-6.094-6.094c-2.984-.781-6.156.109-8.299 2.327l-59.733 59.732c-2.44 2.44-3.169 6.11-1.849 9.298 1.32 3.189 4.431 5.268 7.882 5.269z"/><path id="Shape_400_" d="m393.543 384.009c-8.694-.003-15.997-6.541-16.957-15.182s4.729-16.623 13.211-18.534 17.044 2.859 19.883 11.077c.995 2.883 3.453 5.015 6.447 5.594s6.07-.483 8.068-2.786c1.999-2.303 2.617-5.498 1.621-8.38-3.756-10.789-12.671-18.977-23.74-21.803v-9.719c0-4.713-3.82-8.533-8.533-8.533s-8.533 3.82-8.533 8.533v9.745c-16.625 4.279-27.469 20.261-25.302 37.29 2.167 17.03 16.668 29.786 33.835 29.765 8.659.003 15.943 6.489 16.947 15.089 1.003 8.6-4.592 16.589-13.018 18.585s-17.01-2.634-19.971-10.77c-1.609-4.43-6.505-6.717-10.935-5.107-4.43 1.609-6.717 6.505-5.107 10.935 3.874 10.535 12.68 18.492 23.552 21.282v9.719c0 4.713 3.82 8.533 8.533 8.533s8.533-3.821 8.533-8.533v-9.745c16.625-4.279 27.469-20.261 25.302-37.29-2.169-17.03-16.669-29.786-33.836-29.765z"/></g></g></g></svg>