<?xml version="1.0" encoding="UTF-8"?>
<svg xmlns="http://www.w3.org/2000/svg" id="Icons" viewBox="0 0 60 60" width="512" height="512"><path d="M16.269,4.038a11.3,11.3,0,0,0-9.03,4.705A11.381,11.381,0,0,0,5.558,19.006a1,1,0,0,0,.953.7,1.021,1.021,0,0,0,.3-.047A1,1,0,0,0,7.464,18.4,9.4,9.4,0,0,1,8.853,9.925a9.294,9.294,0,0,1,7.416-3.887,1,1,0,0,0,0-2Z"/><path d="M54.856,11.812l-1.668-1.668A2,2,0,0,0,50.662,9.9L49.1,10.939a13.924,13.924,0,0,0-3.595-1.495l-.365-1.833A2,2,0,0,0,43.18,6H41.719A14.7,14.7,0,0,0,25.259.79l-.014,0L25.2.81A6.967,6.967,0,0,1,20.8.81h0L20.757.8,20.74.79A14.645,14.645,0,0,0,5.67,4.4,15.581,15.581,0,0,0,1.726,20.2l.509,1.628a40.215,40.215,0,0,0,3.879,9.01A6.391,6.391,0,0,1,7.18,34c0,.26.34,26,7.91,26C18.956,60,21,55.505,21,47V42.013C21,41.89,21.07,39,23,39s2,2.89,2,3v5c0,8.505,2.044,13,5.91,13,5.871,0,7.387-15.18,7.774-22.489l.175.878A2,2,0,0,0,40.82,40h2.36a2,2,0,0,0,1.961-1.61l.365-1.834A13.924,13.924,0,0,0,49.1,35.061L50.662,36.1a2,2,0,0,0,2.526-.248l1.668-1.668a2,2,0,0,0,.248-2.527L54.061,30.1a13.954,13.954,0,0,0,1.5-3.6l1.834-.364A2.006,2.006,0,0,0,59,24.179V21.821a2.006,2.006,0,0,0-1.609-1.962L55.557,19.5a13.939,13.939,0,0,0-1.5-3.6l1.043-1.56A2,2,0,0,0,54.856,11.812ZM30.91,58C28.462,58,27,53.888,27,47V41.99c-.018-1.726-.876-4.99-4-4.99s-3.982,3.264-4,5v5c0,6.888-1.462,11-3.91,11-4.152,0-5.91-17.169-5.91-24a8.24,8.24,0,0,0-1.354-4.2,38.3,38.3,0,0,1-3.681-8.572L3.634,19.6A13.589,13.589,0,0,1,7.074,5.827,12.676,12.676,0,0,1,20.119,2.691h0l.044.015.015,0a8.946,8.946,0,0,0,5.644,0l.012,0,.048-.016h0A12.685,12.685,0,0,1,39.528,6.479a1.994,1.994,0,0,0-.669,1.131l-.365,1.834A13.924,13.924,0,0,0,34.9,10.939L33.338,9.9a2,2,0,0,0-2.526.248l-1.668,1.668a2,2,0,0,0-.248,2.527l1.043,1.56a13.939,13.939,0,0,0-1.5,3.6l-1.834.364A2.006,2.006,0,0,0,25,21.821v2.358a2.006,2.006,0,0,0,1.609,1.962l1.834.364a13.954,13.954,0,0,0,1.5,3.6L28.9,31.661a2,2,0,0,0,.248,2.527l1.668,1.668a2,2,0,0,0,2.526.248L34.9,35.061a14.063,14.063,0,0,0,1.855.915C36.321,46.785,34.164,58,30.91,58ZM57,21.82h0Zm-2.465-.489,2.465.49v2.358l-2.465.49a1,1,0,0,0-.783.775,12.006,12.006,0,0,1-1.718,4.127,1,1,0,0,0,.005,1.1l1.4,2.1-1.669,1.669-2.1-1.4a1,1,0,0,0-1.105-.005,11.949,11.949,0,0,1-4.126,1.717,1,1,0,0,0-.775.784L43.18,38H40.82l-.49-2.465a1,1,0,0,0-.775-.784,11.949,11.949,0,0,1-4.126-1.717,1,1,0,0,0-1.105.005l-2.1,1.4-1.669-1.669,1.4-2.1a1,1,0,0,0,.005-1.1,12.006,12.006,0,0,1-1.718-4.127,1,1,0,0,0-.783-.775L27,24.179V21.821l2.465-.49a1,1,0,0,0,.783-.775,11.99,11.99,0,0,1,1.718-4.127,1,1,0,0,0-.005-1.1l-1.4-2.1,1.669-1.669,2.1,1.4a1,1,0,0,0,1.105,0,11.949,11.949,0,0,1,4.126-1.717,1,1,0,0,0,.775-.784L40.82,8h2.36l.49,2.465a1,1,0,0,0,.775.784,11.949,11.949,0,0,1,4.126,1.717,1,1,0,0,0,1.105,0l2.1-1.4,1.669,1.669-1.4,2.1a1,1,0,0,0-.005,1.1,11.99,11.99,0,0,1,1.718,4.127A1,1,0,0,0,54.535,21.331Z"/><path d="M42,13A10,10,0,1,0,52,23,10.011,10.011,0,0,0,42,13Zm0,18a8,8,0,1,1,8-8A8.009,8.009,0,0,1,42,31Z"/></svg>
