<svg fill="none" height="512" viewBox="0 0 25 24" width="512" xmlns="http://www.w3.org/2000/svg"><path d="m15.782 2h-7.56005c-3.78 0-4.72 1.01-4.72 5.04v11.26c0 2.66 1.46 3.29 3.23 1.39l.01-.01c.82-.87 2.07-.8 2.78.15l1.01005 1.35c.81 1.07 2.12 1.07 2.93 0l1.01-1.35c.72-.96 1.97-1.03 2.79-.15 1.78 1.9 3.23 1.27 3.23-1.39v-11.25c.01-4.03-.93-5.04-4.71-5.04zm-6.78005 5c.55 0 1.00005.45 1.00005 1s-.44005 1-1.00005 1-1-.45-1-1 .44-1 1-1zm6.00005 7c-.56 0-1-.45-1-1s.45-1 1-1 1 .45 1 1-.44 1-1 1zm.9-6.41-6.73005 6.73c-.15.15-.34.22-.53.22s-.38-.07-.53-.22c-.29-.29-.29-.77 0-1.06l6.73005-6.73c.29-.29.77-.29 1.06 0s.29.77 0 1.06z" fill="rgb(0,0,0)"/></svg>